<?xml version="1.0" encoding="utf-8"?>
<!-- Generator: Adobe Illustrator 16.0.0, SVG Export Plug-In . SVG Version: 6.00 Build 0)  -->
<!DOCTYPE svg PUBLIC "-//W3C//DTD SVG 1.1//EN" "http://www.w3.org/Graphics/SVG/1.1/DTD/svg11.dtd">
<svg version="1.1" id="Layer_1" xmlns="http://www.w3.org/2000/svg" xmlns:xlink="http://www.w3.org/1999/xlink" x="0px" y="0px"
	 width="281.833px" height="55px" viewBox="0 0 281.833 55" enable-background="new 0 0 281.833 55" xml:space="preserve">
<g>
	<path fill="#FFFFFF" d="M41.036,5.055c3.08,5.745-1.678,7.994-6.313,9.067c-0.366,0.665-0.573,1.838,0.925,2.033
		c3.322-0.077,16.079-0.418,16.811,1.151c1.622,2.489,2.231,9.854,0.463,16.504c-1.831,3.942-20.982-0.707-18.598,7.312
		c1.01,0.389,1.585,0.234,3.073-0.426c1.76-0.51,2.762-0.387,3.765-0.153c2.356,0.715,6.856,5.593,15.806,2.66
		c0.998,2.407,2.757,3.922,3.708,6.507c-12.129,6.26-17.835-4.742-25.646,0.826c-1.7,1.458-4.48,1.173-4.48,1.173
		c-1.252-0.161-2.28-0.347-5.037-1.985c-3.878-3.593-13.968,5.926-22.309-0.943c0.8-2.457,3.066-4.828,3.708-6.506
		c6.093,1.715,7.092,1.514,14.212-1.344c0,0,2.482-0.563,4.621-0.024c2.611,1.206,2.714,0.209,2.714,0.209
		c2.793-6.906-6.129-2.956-16.373-5.312c-1.22-2.029-1.854-13.226-0.465-15.574c5.023-3.166,12.297-2.723,18.309-4.094
		c1.275-3.915-1.969-2.521-3.321-6.782C26.417,1.684,37.675,0.91,41.036,5.055z M31.129,8.813c-0.541,3.112,7.031,2.828,6.451-1.201
		C36.963,4.629,31.052,5.985,31.129,8.813z M17.456,23.264c-0.32,1.698-0.618,5.657-0.193,7.905c0.889,2.826,24.141,1.82,29.045,0
		c1.739-2.79,0.85-8.912,0.38-9.432C38.044,19.894,23.991,20.634,17.456,23.264z"/>
</g>
<g>
	<path fill="#FFFFFF" d="M77.715,12.325v12.875h-1.658V12.325H77.715z"/>
	<path fill="#FFFFFF" d="M80.741,18.458c0-0.956-0.02-1.738-0.076-2.503h1.485l0.095,1.528h0.037
		c0.458-0.879,1.523-1.737,3.047-1.737c1.275,0,3.257,0.764,3.257,3.936v5.52h-1.675v-5.331c0-1.49-0.553-2.732-2.134-2.732
		c-1.104,0-1.962,0.784-2.247,1.719c-0.075,0.21-0.114,0.496-0.114,0.783v5.56H80.74L80.741,18.458L80.741,18.458z"/>
	<path fill="#FFFFFF" d="M91.48,25.199v-7.965h-1.295v-1.28h1.295v-0.439c0-1.301,0.285-2.484,1.067-3.229
		c0.628-0.611,1.466-0.858,2.246-0.858c0.59,0,1.104,0.132,1.429,0.266l-0.229,1.299c-0.247-0.114-0.59-0.209-1.066-0.209
		c-1.428,0-1.79,1.259-1.79,2.674v0.496h2.228v1.28h-2.228v7.965H91.48z"/>
	<path fill="#FFFFFF" d="M104.962,20.499c0,3.421-2.36,4.912-4.589,4.912c-2.494,0-4.418-1.834-4.418-4.757
		c0-3.095,2.019-4.911,4.57-4.911C103.173,15.743,104.962,17.673,104.962,20.499z M97.648,20.597c0,2.022,1.163,3.553,2.801,3.553
		c1.6,0,2.799-1.511,2.799-3.592c0-1.566-0.78-3.555-2.761-3.555C98.506,17.005,97.648,18.839,97.648,20.597z"/>
	<path fill="#FFFFFF" d="M107.073,18.839c0-1.09-0.02-2.025-0.075-2.885h1.467l0.057,1.814h0.076
		c0.42-1.241,1.429-2.025,2.553-2.025c0.19,0,0.324,0.019,0.476,0.058v1.584c-0.171-0.038-0.343-0.057-0.57-0.057
		c-1.181,0-2.019,0.898-2.247,2.158c-0.039,0.229-0.076,0.498-0.076,0.784v4.928h-1.658L107.073,18.839L107.073,18.839z"/>
	<path fill="#FFFFFF" d="M113.375,18.458c0-0.956-0.02-1.738-0.076-2.503h1.467l0.076,1.491h0.057c0.515-0.88,1.372-1.7,2.896-1.7
		c1.257,0,2.209,0.764,2.609,1.854h0.038c0.285-0.516,0.647-0.916,1.028-1.203c0.552-0.421,1.161-0.651,2.037-0.651
		c1.218,0,3.027,0.805,3.027,4.013v5.446h-1.638v-5.235c0-1.776-0.648-2.846-2.001-2.846c-0.951,0-1.694,0.706-1.979,1.527
		c-0.076,0.229-0.133,0.535-0.133,0.839v5.711h-1.638v-5.539c0-1.471-0.648-2.542-1.924-2.542c-1.046,0-1.809,0.842-2.076,1.682
		c-0.095,0.249-0.133,0.536-0.133,0.821v5.578h-1.638V18.458L113.375,18.458z"/>
	<path fill="#FFFFFF" d="M134.359,25.199l-0.134-1.164h-0.058c-0.513,0.728-1.504,1.376-2.818,1.376
		c-1.868,0-2.818-1.318-2.818-2.655c0-2.235,1.979-3.458,5.54-3.439v-0.19c0-0.765-0.209-2.14-2.095-2.14
		c-0.856,0-1.751,0.268-2.399,0.688l-0.381-1.108c0.762-0.497,1.867-0.823,3.028-0.823c2.819,0,3.504,1.93,3.504,3.783v3.458
		c0,0.802,0.039,1.586,0.151,2.215H134.359z M134.112,20.481c-1.83-0.038-3.905,0.285-3.905,2.083c0,1.089,0.723,1.604,1.581,1.604
		c1.201,0,1.961-0.764,2.229-1.547c0.056-0.172,0.096-0.361,0.096-0.535V20.481z"/>
	<path fill="#FFFFFF" d="M140.375,13.298v2.657h2.4v1.28h-2.4v4.987c0,1.146,0.323,1.796,1.257,1.796
		c0.438,0,0.762-0.058,0.972-0.117l0.075,1.26c-0.322,0.134-0.838,0.229-1.486,0.229c-0.779,0-1.408-0.247-1.809-0.706
		c-0.477-0.497-0.647-1.318-0.647-2.408v-5.041h-1.428v-1.281h1.428v-2.216L140.375,13.298z"/>
	<path fill="#FFFFFF" d="M146.524,13.356c0.02,0.573-0.399,1.031-1.066,1.031c-0.59,0-1.012-0.458-1.012-1.031
		c0-0.592,0.439-1.05,1.048-1.05C146.125,12.307,146.524,12.765,146.524,13.356z M144.658,25.199v-9.245h1.676v9.245H144.658z"/>
	<path fill="#FFFFFF" d="M155.684,24.856c-0.439,0.229-1.41,0.534-2.648,0.534c-2.781,0-4.591-1.89-4.591-4.718
		c0-2.846,1.943-4.91,4.952-4.91c0.992,0,1.869,0.249,2.324,0.478l-0.381,1.301c-0.398-0.232-1.026-0.441-1.943-0.441
		c-2.112,0-3.255,1.567-3.255,3.497c0,2.14,1.371,3.459,3.199,3.459c0.952,0,1.582-0.25,2.058-0.46L155.684,24.856z"/>
	<path fill="#FFFFFF" d="M162.748,25.199l-0.134-1.164h-0.058c-0.513,0.728-1.504,1.376-2.818,1.376
		c-1.866,0-2.818-1.318-2.818-2.655c0-2.235,1.979-3.458,5.541-3.439v-0.19c0-0.765-0.21-2.14-2.096-2.14
		c-0.855,0-1.751,0.268-2.399,0.688l-0.383-1.108c0.763-0.497,1.868-0.823,3.03-0.823c2.817,0,3.502,1.93,3.502,3.783v3.458
		c0,0.802,0.039,1.586,0.155,2.215H162.748z M162.499,20.481c-1.828-0.038-3.903,0.285-3.903,2.083c0,1.089,0.723,1.604,1.58,1.604
		c1.201,0,1.962-0.764,2.23-1.547c0.055-0.172,0.093-0.361,0.093-0.535V20.481z"/>
	<path fill="#FFFFFF" d="M169.582,12.325v7.412c0,2.215,0.837,3.343,2.323,3.343c1.523,0,2.36-1.07,2.36-3.343v-7.412h2.895v7.221
		c0,3.974-1.999,5.866-5.351,5.866c-3.238,0-5.143-1.795-5.143-5.902v-7.184H169.582L169.582,12.325z"/>
	<path fill="#FFFFFF" d="M179.576,18.839c0-1.166-0.038-2.157-0.074-2.979h2.438l0.132,1.259h0.059
		c0.399-0.592,1.217-1.471,2.817-1.471c1.201,0,2.153,0.613,2.553,1.587h0.038c0.343-0.478,0.762-0.86,1.201-1.128
		c0.514-0.305,1.084-0.459,1.771-0.459c1.791,0,3.143,1.261,3.143,4.052v5.5h-2.819v-5.081c0-1.355-0.437-2.14-1.37-2.14
		c-0.668,0-1.144,0.458-1.334,1.013c-0.075,0.21-0.114,0.516-0.114,0.745v5.462h-2.82v-5.232c0-1.186-0.419-1.988-1.332-1.988
		c-0.743,0-1.182,0.573-1.354,1.05c-0.096,0.229-0.113,0.498-0.113,0.727v5.444h-2.819V18.839L179.576,18.839z"/>
	<path fill="#FFFFFF" d="M201.244,25.199l-0.171-0.935h-0.058c-0.608,0.745-1.562,1.146-2.665,1.146c-1.886,0-3.01-1.376-3.01-2.866
		c0-2.427,2.172-3.591,5.467-3.572v-0.134c0-0.497-0.267-1.204-1.695-1.204c-0.954,0-1.962,0.325-2.57,0.707l-0.534-1.872
		c0.646-0.363,1.924-0.822,3.617-0.822c3.104,0,4.095,1.834,4.095,4.032v3.247c0,0.898,0.039,1.758,0.134,2.273H201.244z
		 M200.902,20.787c-1.523-0.02-2.705,0.344-2.705,1.471c0,0.744,0.496,1.108,1.143,1.108c0.725,0,1.312-0.477,1.504-1.068
		c0.038-0.155,0.059-0.326,0.059-0.5V20.787z"/>
	<path fill="#FFFFFF" d="M206.002,18.839c0-1.166-0.036-2.157-0.074-2.979h2.514l0.132,1.279h0.058
		c0.384-0.593,1.335-1.491,2.876-1.491c1.905,0,3.334,1.261,3.334,4.013v5.539h-2.895v-5.177c0-1.204-0.418-2.025-1.466-2.025
		c-0.802,0-1.274,0.554-1.466,1.089c-0.076,0.171-0.116,0.457-0.116,0.727v5.386h-2.896L206.002,18.839L206.002,18.839z"/>
	<path fill="#FFFFFF" d="M220.15,13.261c0,0.802-0.61,1.452-1.562,1.452c-0.914,0-1.522-0.649-1.505-1.452
		c-0.018-0.84,0.591-1.471,1.524-1.471C219.54,11.79,220.133,12.42,220.15,13.261z M217.161,25.199v-9.341h2.894v9.341H217.161z"/>
	<path fill="#FFFFFF" d="M222.358,22.66c0.533,0.325,1.639,0.707,2.495,0.707c0.877,0,1.238-0.306,1.238-0.783
		s-0.287-0.707-1.37-1.07c-1.926-0.651-2.668-1.7-2.647-2.809c0-1.737,1.486-3.057,3.79-3.057c1.084,0,2.057,0.249,2.627,0.535
		l-0.514,2.004c-0.419-0.229-1.218-0.535-2.018-0.535c-0.705,0-1.106,0.286-1.106,0.764c0,0.439,0.363,0.667,1.504,1.069
		c1.771,0.612,2.514,1.511,2.534,2.886c0,1.738-1.371,3.018-4.038,3.018c-1.217,0-2.305-0.265-3.009-0.647L222.358,22.66z"/>
	<path fill="#FFFFFF" d="M233.879,13.185v2.674h2.075v2.139h-2.075v3.381c0,1.128,0.266,1.643,1.142,1.643
		c0.361,0,0.648-0.038,0.857-0.076l0.02,2.197c-0.381,0.151-1.066,0.247-1.885,0.247c-0.932,0-1.715-0.322-2.171-0.8
		c-0.532-0.555-0.8-1.452-0.8-2.77v-3.822h-1.238v-2.139h1.238v-2.026L233.879,13.185z"/>
	<path fill="#FFFFFF" d="M240.618,13.261c0,0.802-0.608,1.452-1.562,1.452c-0.913,0-1.521-0.649-1.503-1.452
		c-0.019-0.84,0.591-1.471,1.523-1.471C240.01,11.79,240.6,12.42,240.618,13.261z M237.628,25.199v-9.341h2.895v9.341H237.628z"/>
	<path fill="#FFFFFF" d="M249.834,24.972c-0.515,0.227-1.485,0.418-2.59,0.418c-3.009,0-4.933-1.833-4.933-4.775
		c0-2.732,1.866-4.968,5.333-4.968c0.761,0,1.599,0.134,2.209,0.362l-0.457,2.158c-0.343-0.151-0.856-0.285-1.617-0.285
		c-1.523,0-2.516,1.09-2.496,2.616c0,1.721,1.143,2.617,2.551,2.617c0.688,0,1.22-0.115,1.656-0.285L249.834,24.972z"/>
	<path fill="#FFFFFF" d="M256.801,25.199l-0.171-0.935h-0.057c-0.609,0.745-1.562,1.146-2.666,1.146
		c-1.886,0-3.011-1.376-3.011-2.866c0-2.427,2.172-3.591,5.467-3.572v-0.134c0-0.497-0.266-1.204-1.694-1.204
		c-0.953,0-1.963,0.325-2.571,0.707l-0.534-1.872c0.647-0.363,1.924-0.822,3.619-0.822c3.104,0,4.094,1.834,4.094,4.032v3.247
		c0,0.898,0.038,1.758,0.134,2.273H256.801z M256.459,20.787c-1.523-0.02-2.703,0.344-2.703,1.471c0,0.744,0.495,1.108,1.144,1.108
		c0.722,0,1.312-0.477,1.502-1.068c0.038-0.155,0.058-0.326,0.058-0.5V20.787z"/>
</g>
<g>
	<path fill="#FFFFFF" d="M81.945,47.8c-0.386,0.199-1.237,0.398-2.315,0.398c-2.847,0-4.577-1.783-4.577-4.511
		c0-2.953,2.049-4.736,4.79-4.736c1.078,0,1.85,0.226,2.182,0.399l-0.359,1.304c-0.426-0.187-1.011-0.346-1.756-0.346
		c-1.823,0-3.14,1.144-3.14,3.3c0,1.969,1.158,3.232,3.127,3.232c0.665,0,1.357-0.133,1.783-0.332L81.945,47.8z"/>
	<path fill="#FFFFFF" d="M90.95,43.488c0,3.007-1.823,4.724-4.298,4.724c-2.528,0-4.125-1.93-4.125-4.564
		c0-2.754,1.73-4.696,4.258-4.696C89.407,38.951,90.95,40.934,90.95,43.488z M84.258,43.621c0,1.823,0.918,3.273,2.488,3.273
		c1.583,0,2.475-1.464,2.475-3.34c0-1.689-0.838-3.286-2.475-3.286C85.123,40.269,84.258,41.771,84.258,43.621z"/>
	<path fill="#FFFFFF" d="M92.357,39.217c0.612-0.106,1.53-0.186,2.475-0.186c1.291,0,2.169,0.213,2.768,0.718
		c0.493,0.413,0.772,1.038,0.772,1.797c0,1.157-0.785,1.942-1.624,2.248v0.04c0.639,0.239,1.025,0.865,1.251,1.729
		c0.279,1.118,0.519,2.156,0.705,2.502h-1.69c-0.133-0.266-0.346-0.998-0.599-2.115c-0.253-1.171-0.679-1.544-1.61-1.57H93.98v3.686
		h-1.623V39.217z M93.98,43.183h0.971c1.104,0,1.796-0.586,1.796-1.478c0-0.984-0.692-1.437-1.756-1.437
		c-0.519,0-0.852,0.04-1.011,0.08V43.183z"/>
	<path fill="#FFFFFF" d="M99.884,46.282c0.532,0.307,1.331,0.572,2.169,0.572c1.051,0,1.636-0.492,1.636-1.224
		c0-0.679-0.452-1.078-1.597-1.49c-1.477-0.532-2.421-1.317-2.421-2.608c0-1.464,1.224-2.581,3.167-2.581
		c0.972,0,1.69,0.213,2.156,0.452l-0.399,1.317c-0.319-0.173-0.945-0.426-1.783-0.426c-1.038,0-1.49,0.559-1.49,1.078
		c0,0.691,0.519,1.011,1.716,1.477c1.557,0.585,2.315,1.37,2.315,2.661c0,1.438-1.091,2.688-3.406,2.688
		c-0.945,0-1.929-0.266-2.422-0.559L99.884,46.282z"/>
	<path fill="#FFFFFF" d="M114.784,43.488c0,3.007-1.823,4.724-4.297,4.724c-2.528,0-4.125-1.93-4.125-4.564
		c0-2.754,1.729-4.696,4.258-4.696C113.24,38.951,114.784,40.934,114.784,43.488z M108.091,43.621c0,1.823,0.918,3.273,2.488,3.273
		c1.583,0,2.475-1.464,2.475-3.34c0-1.689-0.838-3.286-2.475-3.286C108.956,40.269,108.091,41.771,108.091,43.621z"/>
	<path fill="#FFFFFF" d="M120.123,39.217c0.719-0.119,1.637-0.186,2.607-0.186c1.677,0,2.834,0.346,3.659,1.037
		c0.865,0.706,1.397,1.771,1.397,3.3c0,1.597-0.546,2.795-1.397,3.566c-0.892,0.812-2.315,1.224-4.058,1.224
		c-0.958,0-1.677-0.053-2.209-0.119V39.217z M121.76,46.814c0.226,0.04,0.572,0.04,0.904,0.04c2.129,0.014,3.394-1.157,3.394-3.433
		c0.013-1.982-1.132-3.113-3.181-3.113c-0.519,0-0.892,0.04-1.117,0.093V46.814z"/>
	<path fill="#FFFFFF" d="M130.843,39.098v8.968h-1.637v-8.968H130.843z"/>
	<path fill="#FFFFFF" d="M136.65,39.098h1.637v7.598h3.686v1.37h-5.322V39.098z"/>
	<path fill="#FFFFFF" d="M145.057,45.524l-0.771,2.541h-1.69l2.874-8.968h2.089l2.914,8.968h-1.756l-0.812-2.541H145.057z
		 M147.624,44.286l-0.705-2.208c-0.173-0.546-0.319-1.158-0.452-1.677h-0.026c-0.134,0.519-0.267,1.145-0.426,1.677l-0.692,2.208
		H147.624z"/>
	<path fill="#FFFFFF" d="M152.917,39.098v5.229c0,1.757,0.731,2.568,1.836,2.568c1.185,0,1.89-0.812,1.89-2.568v-5.229h1.637v5.122
		c0,2.768-1.424,3.992-3.58,3.992c-2.075,0-3.419-1.158-3.419-3.979v-5.136H152.917z"/>
	<path fill="#FFFFFF" d="M160.15,39.217c0.612-0.106,1.53-0.186,2.476-0.186c1.29,0,2.169,0.213,2.768,0.718
		c0.492,0.413,0.771,1.038,0.771,1.797c0,1.157-0.785,1.942-1.623,2.248v0.04c0.639,0.239,1.024,0.865,1.25,1.729
		c0.28,1.118,0.52,2.156,0.706,2.502h-1.69c-0.133-0.266-0.346-0.998-0.599-2.115c-0.253-1.171-0.679-1.544-1.61-1.57h-0.824v3.686
		h-1.624V39.217z M161.774,43.183h0.971c1.104,0,1.797-0.586,1.797-1.478c0-0.984-0.692-1.437-1.757-1.437
		c-0.519,0-0.852,0.04-1.011,0.08V43.183z"/>
	<path fill="#FFFFFF" d="M172.735,44.087h-3.38v2.635h3.779v1.344h-5.416v-8.968h5.216v1.344h-3.579v2.315h3.38V44.087z"/>
	<path fill="#FFFFFF" d="M176.364,45.524l-0.772,2.541h-1.689l2.874-8.968h2.089l2.914,8.968h-1.756l-0.812-2.541H176.364z
		 M178.932,44.286l-0.705-2.208c-0.173-0.546-0.319-1.158-0.452-1.677h-0.026c-0.133,0.519-0.267,1.145-0.426,1.677l-0.692,2.208
		H178.932z"/>
	<path fill="#FFFFFF" d="M194.53,44.406c-0.054-1.157-0.12-2.555-0.106-3.766h-0.04c-0.293,1.091-0.665,2.302-1.064,3.433
		l-1.304,3.886h-1.264l-1.198-3.832c-0.346-1.145-0.665-2.368-0.904-3.486h-0.026c-0.04,1.171-0.094,2.595-0.16,3.819l-0.199,3.605
		h-1.53l0.599-8.968h2.155l1.171,3.605c0.319,1.052,0.599,2.116,0.825,3.113h0.04c0.239-0.971,0.545-2.075,0.892-3.126l1.237-3.593
		h2.129l0.519,8.968h-1.597L194.53,44.406z"/>
	<path fill="#FFFFFF" d="M199.675,45.524l-0.772,2.541h-1.689l2.874-8.968h2.089l2.914,8.968h-1.756l-0.812-2.541H199.675z
		 M202.242,44.286l-0.705-2.208c-0.173-0.546-0.319-1.158-0.452-1.677h-0.026c-0.133,0.519-0.267,1.145-0.426,1.677l-0.692,2.208
		H202.242z"/>
	<path fill="#FFFFFF" d="M213.243,47.653c-0.572,0.213-1.69,0.505-2.888,0.505c-1.517,0-2.661-0.386-3.513-1.197
		c-0.798-0.759-1.264-1.942-1.251-3.3c0-2.834,2.023-4.657,4.99-4.657c1.104,0,1.969,0.227,2.382,0.426l-0.359,1.317
		c-0.492-0.213-1.091-0.386-2.036-0.386c-1.916,0-3.26,1.131-3.26,3.22c0,2.036,1.251,3.247,3.113,3.247
		c0.586,0,1.025-0.08,1.238-0.187v-2.235h-1.584v-1.29h3.167V47.653z"/>
	<path fill="#FFFFFF" d="M216.552,39.098v8.968h-1.637v-8.968H216.552z"/>
	<path fill="#FFFFFF" d="M218.387,46.282c0.533,0.307,1.331,0.572,2.169,0.572c1.052,0,1.637-0.492,1.637-1.224
		c0-0.679-0.452-1.078-1.597-1.49c-1.477-0.532-2.422-1.317-2.422-2.608c0-1.464,1.225-2.581,3.167-2.581
		c0.972,0,1.69,0.213,2.155,0.452l-0.398,1.317c-0.319-0.173-0.945-0.426-1.783-0.426c-1.038,0-1.49,0.559-1.49,1.078
		c0,0.691,0.519,1.011,1.717,1.477c1.557,0.585,2.314,1.37,2.314,2.661c0,1.438-1.091,2.688-3.406,2.688
		c-0.944,0-1.929-0.266-2.421-0.559L218.387,46.282z"/>
	<path fill="#FFFFFF" d="M227.046,40.468h-2.555v-1.37h6.772v1.37h-2.581v7.598h-1.637V40.468z"/>
	<path fill="#FFFFFF" d="M232.312,39.217c0.612-0.106,1.53-0.186,2.476-0.186c1.29,0,2.168,0.213,2.768,0.718
		c0.492,0.413,0.771,1.038,0.771,1.797c0,1.157-0.785,1.942-1.623,2.248v0.04c0.639,0.239,1.024,0.865,1.25,1.729
		c0.279,1.118,0.52,2.156,0.705,2.502h-1.689c-0.133-0.266-0.346-0.998-0.599-2.115c-0.253-1.171-0.679-1.544-1.61-1.57h-0.824
		v3.686h-1.624V39.217z M233.936,43.183h0.971c1.104,0,1.797-0.586,1.797-1.478c0-0.984-0.692-1.437-1.757-1.437
		c-0.519,0-0.852,0.04-1.011,0.08V43.183z"/>
	<path fill="#FFFFFF" d="M241.769,45.524l-0.772,2.541h-1.689l2.874-8.968h2.089l2.914,8.968h-1.756l-0.812-2.541H241.769z
		 M244.336,44.286l-0.705-2.208c-0.173-0.546-0.319-1.158-0.452-1.677h-0.026c-0.133,0.519-0.267,1.145-0.426,1.677l-0.692,2.208
		H244.336z"/>
	<path fill="#FFFFFF" d="M248.431,39.098h1.637v7.598h3.686v1.37h-5.322V39.098z"/>
	<path fill="#FFFFFF" d="M260.004,44.087h-3.38v2.635h3.779v1.344h-5.416v-8.968h5.216v1.344h-3.579v2.315h3.38V44.087z"/>
</g>
</svg>
